<svg width="375" height="263" viewBox="0 0 375 263" fill="none" xmlns="http://www.w3.org/2000/svg">
<path d="M330.828 210.398V240.937H284.885L293.836 194.041C293.549 195.892 299.279 199.363 307.12 202.844C309.934 204.094 313.073 205.334 316.424 206.51C321.83 208.417 326.81 209.713 330.828 210.398Z" fill="#9A3B82"/>
<path d="M330.827 201.215V209.389C326.81 208.704 321.839 207.417 316.414 205.51C303.63 201.02 293.789 195.475 294.345 192.985C294.354 192.948 294.363 192.911 294.373 192.883C295.234 190.448 306.555 192.133 319.515 196.679C323.681 198.141 327.439 199.65 330.596 201.103C330.67 201.141 330.744 201.178 330.827 201.215Z" fill="#FFCF2D"/>
<path d="M324.524 130.453C320.044 130.453 316.415 134.081 316.415 138.553V160.751C316.415 165.223 312.786 168.851 308.315 168.851H275.841C280.321 168.851 283.941 165.223 283.941 160.751V138.553C283.941 134.072 287.569 130.453 292.041 130.453H324.524Z" fill="white" stroke="#FFCF2D" stroke-width="0.462858" stroke-miterlimit="10"/>
<path d="M310.323 141.94H289.643V161.131H310.323V141.94Z" fill="white" stroke="#FFCF2D" stroke-width="0.462858" stroke-miterlimit="10"/>
<path d="M310.314 144.681H289.643" stroke="#FFCF2D" stroke-width="0.462858" stroke-miterlimit="10"/>
<path d="M310.314 147.421H289.643" stroke="#FFCF2D" stroke-width="0.462858" stroke-miterlimit="10"/>
<path d="M310.314 150.171H289.643" stroke="#FFCF2D" stroke-width="0.462858" stroke-miterlimit="10"/>
<path d="M310.314 152.911H289.643" stroke="#FFCF2D" stroke-width="0.462858" stroke-miterlimit="10"/>
<path d="M310.314 155.66H289.643" stroke="#FFCF2D" stroke-width="0.462858" stroke-miterlimit="10"/>
<path d="M310.314 158.4H289.643" stroke="#FFCF2D" stroke-width="0.462858" stroke-miterlimit="10"/>
<path d="M316.414 138.553C316.414 134.1 320.006 130.49 324.44 130.453C328.884 130.49 332.466 134.1 332.466 138.553H316.414Z" fill="#66B0F0" stroke="#FFCF2D" stroke-width="0.462858" stroke-miterlimit="10"/>
<path d="M308.351 169.055C308.342 169.055 308.323 169.055 308.314 169.055H275.96C275.942 169.055 275.923 169.055 275.905 169.055C272.582 169.009 269.74 166.954 268.536 164.047H300.955C302.167 166.954 305.009 169.009 308.351 169.055Z" fill="#FFCF2D"/>
<path d="M290.994 139.737H287.254V136.738H289.013V138.404C289.013 138.441 289.031 138.469 289.05 138.478L289.059 138.487L290.994 139.737Z" fill="#FE5244"/>
<path d="M292.448 137.774V138.172C292.448 138.247 292.438 138.321 292.438 138.395C292.438 138.413 292.429 138.441 292.429 138.459C292.42 138.496 292.42 138.533 292.411 138.571C292.309 139.08 292.003 139.496 291.624 139.654C291.596 139.663 291.568 139.672 291.54 139.681C291.494 139.7 291.439 139.709 291.392 139.718C291.374 139.718 291.355 139.728 291.337 139.728L289.217 138.348C289.235 138.024 289.439 137.765 289.68 137.765H292.448V137.774Z" fill="#FE5244"/>
<path d="M313.1 136.738V139.737H309.361L311.286 138.487L311.295 138.478C311.305 138.469 311.305 138.469 311.314 138.469C311.314 138.46 311.323 138.46 311.323 138.45C311.323 138.45 311.323 138.441 311.332 138.441C311.332 138.432 311.332 138.432 311.342 138.432C311.342 138.432 311.342 138.432 311.342 138.423C311.342 138.413 311.342 138.413 311.342 138.404V136.738H313.1Z" fill="#FE5244"/>
<path d="M311.156 138.358L309.036 139.737C308.981 139.728 308.925 139.719 308.87 139.709C308.851 139.7 308.833 139.7 308.814 139.691C308.786 139.682 308.768 139.672 308.74 139.663C308.722 139.654 308.694 139.645 308.675 139.635C308.388 139.478 308.148 139.173 308.027 138.793C308.009 138.737 307.99 138.682 307.981 138.626C307.972 138.608 307.972 138.58 307.963 138.552C307.944 138.432 307.926 138.312 307.926 138.182V137.784H310.703C310.934 137.775 311.138 138.034 311.156 138.358Z" fill="#FE5244"/>
<path d="M311.156 135.22V137.831C311.138 137.812 311.119 137.785 311.101 137.766C311.064 137.729 311.027 137.701 310.99 137.673C310.897 137.618 310.795 137.581 310.693 137.581H289.67C289.559 137.581 289.457 137.618 289.374 137.673C289.337 137.701 289.3 137.729 289.263 137.766C289.245 137.785 289.226 137.803 289.208 137.831V135.22C289.208 134.869 289.411 134.591 289.67 134.591H310.693C310.943 134.591 311.156 134.878 311.156 135.22Z" fill="#FE5244"/>
<path d="M330.828 173.102V209.39H330.819C326.801 208.705 321.83 207.418 316.405 205.511C313.054 204.335 309.916 203.086 307.102 201.845L308.611 193.421L311.175 179.119C303.13 176.601 301.825 168.862 301.825 168.862H308.296C312.776 168.862 316.396 165.233 316.396 160.762V158.096H312.24C309.323 158.096 306.954 155.226 306.954 152.31V151.366H316.192C317.905 151.366 319.516 152.171 320.543 153.541L327.301 162.567C329.597 165.603 330.828 169.297 330.828 173.102Z" fill="#A0505A"/>
<path d="M330.827 201.214V209.389H330.818C326.801 208.703 321.829 207.417 316.405 205.51C313.054 204.334 309.915 203.084 307.101 201.844L308.61 193.42C311.943 194.235 315.646 195.336 319.497 196.688C323.662 198.15 327.421 199.659 330.568 201.113C330.67 201.14 330.744 201.177 330.827 201.214Z" fill="#73325A"/>
<path d="M316.821 158.096H312.359C309.443 158.096 307.073 155.226 307.073 152.31V151.366H316.821V158.096Z" fill="#A0505A"/>
<path d="M314.017 167.111C314.017 167.111 320.451 169.527 321.034 177.831" stroke="#73325A" stroke-width="0.462858" stroke-miterlimit="10"/>
<path d="M311.193 179.312H315.572" stroke="#73325A" stroke-width="0.462858" stroke-miterlimit="10"/>
<path d="M307.111 75.5219L310.045 73.5779C313.869 71.0507 318.988 73.5502 319.349 78.114L319.988 86.1955C320.339 90.6296 325.218 93.1568 329.041 90.8888L330.893 89.7872" stroke="#FFCF2D" stroke-width="0.55543" stroke-miterlimit="10"/>
<path d="M264.463 45.5005L302.167 67.3844L321.154 110.014L299.371 95.341L275.701 67.6066L264.463 45.5005Z" fill="#9A3B82"/>
<path d="M264.565 44.0298L303.065 66.3858L322.459 109.913" stroke="#FFCF2D" stroke-width="0.55543" stroke-miterlimit="10"/>
<path d="M298.978 96.2837C300.74 94.7962 296.781 87.2092 290.135 79.3375C283.489 71.4659 276.673 66.2904 274.912 67.7779C273.15 69.2654 277.109 76.8524 283.755 84.7241C290.4 92.5957 297.216 97.7712 298.978 96.2837Z" fill="white"/>
<path d="M297.907 96.7384C299.634 95.2806 295.75 87.8411 289.233 80.1218C282.716 72.4025 276.033 67.3265 274.307 68.7843C272.58 70.2421 276.463 77.6816 282.98 85.4009C289.498 93.1202 296.18 98.1961 297.907 96.7384Z" fill="white" stroke="#FFCF2D" stroke-width="0.462858" stroke-miterlimit="10"/>
<path d="M302.5 93.286L298.909 96.3131C299.575 95.7484 299.427 94.3228 298.622 92.3325C297.298 89.0555 294.197 84.2696 290.068 79.3633C285.93 74.4662 281.727 70.606 278.719 68.7545C276.895 67.6252 275.507 67.2364 274.84 67.8011L278.432 64.774C280.191 63.2836 287.319 68.1528 293.965 76.0307C300.612 83.9085 304.269 91.8049 302.5 93.286Z" fill="#FFCF2D"/>
<path d="M340.872 81.7052C341.89 81.2146 342.881 80.7795 343.834 80.4185C344.399 81.0109 344.889 81.7052 345.269 82.4828C345.648 83.2604 345.889 84.075 346 84.8804C345.121 85.3988 344.167 85.9172 343.158 86.4078C338.095 88.861 333.485 89.796 332.855 88.5C332.216 87.1947 335.808 84.1584 340.872 81.7052Z" fill="#FFCF2D"/>
<path d="M331.929 90.2588C332.548 90.2588 333.05 89.7573 333.05 89.1387C333.05 88.52 332.548 88.0186 331.929 88.0186C331.311 88.0186 330.809 88.52 330.809 89.1387C330.809 89.7573 331.311 90.2588 331.929 90.2588Z" stroke="#9A3B82" stroke-width="0.55543" stroke-miterlimit="10"/>
<path d="M265.824 201.744V240.939H221.177L226.897 198.375C226.897 200.096 235.608 202.244 246.356 203.17C257.104 204.105 265.824 203.466 265.824 201.744Z" fill="#66B0F0"/>
<path d="M265.62 200.734C265.62 202.456 256.983 203.095 246.337 202.16C235.692 201.225 227.055 199.077 227.055 197.365C227.055 195.643 235.692 195.004 246.337 195.939C256.992 196.865 265.62 199.013 265.62 200.734Z" fill="#3FB1B5"/>
<path d="M271.813 113.846L274.516 115.596C277.219 117.688 273.479 127.038 266.166 136.461C258.853 145.894 250.734 151.838 248.031 149.745L246.698 148.486" stroke="#66B0F0" stroke-width="0.55543" stroke-miterlimit="10"/>
<path d="M234.275 157.763L264.962 129.676L275.691 97.0078L242.94 126.77L234.275 157.763Z" fill="#66B0F0"/>
<path d="M232.71 161.17L266.11 130.602L277.006 97.4155" stroke="#FE5244" stroke-width="0.55543" stroke-miterlimit="10" stroke-linecap="round"/>
<path d="M250.373 129.583L221.232 157.457C219.815 158.808 217.501 157.531 217.899 155.605L218.714 151.653C219.084 149.866 217.057 148.561 215.585 149.635L205.957 156.642" stroke="#FE5244" stroke-width="0.55543" stroke-miterlimit="10"/>
<path d="M198.117 166.622C197.256 167.344 196.395 168.011 195.562 168.594C194.867 168.159 194.229 167.613 193.664 166.946C193.108 166.28 192.673 165.558 192.368 164.798C193.09 164.076 193.886 163.345 194.747 162.614C199.052 158.994 203.291 156.948 204.226 158.059C205.152 159.17 202.421 163.003 198.117 166.622Z" fill="#FFCF2D"/>
<path d="M205.06 158.439C205.678 158.439 206.18 157.937 206.18 157.319C206.18 156.7 205.678 156.199 205.06 156.199C204.441 156.199 203.94 156.7 203.94 157.319C203.94 157.937 204.441 158.439 205.06 158.439Z" stroke="#FE5244" stroke-width="0.55543" stroke-miterlimit="10"/>
<path d="M251.753 172.242V202.512C250.04 202.438 248.216 202.327 246.337 202.161C239.404 201.559 233.331 200.43 229.933 199.245L230.443 195.894L232.146 184.646H229.943C226.805 184.646 224.268 182.11 224.268 178.971V167.826C224.268 165.623 225.064 163.503 226.518 161.846L233.766 153.561C234.238 153.024 235.127 153.357 235.127 154.07V165.336C235.127 166.687 234.645 167.992 233.766 169.02L233.118 169.779H240.986C242.125 169.779 242.792 168.511 242.153 167.567C241.181 166.15 239.903 164.132 238.691 161.799C236.275 157.18 240.468 154.597 240.468 154.597L250.068 167.048C251.16 168.557 251.753 170.381 251.753 172.242Z" fill="#FFCF2D"/>
<path d="M235.127 153.468V165.335C235.127 166.687 234.646 167.992 233.766 169.02L233.118 169.779" stroke="white" stroke-width="0.462858" stroke-miterlimit="10" stroke-linecap="round"/>
<path d="M233.118 169.769L227.916 175.61" stroke="white" stroke-width="0.462858" stroke-miterlimit="10" stroke-linecap="round"/>
<path d="M235.127 160.178C235.127 161.53 234.646 162.835 233.766 163.863L233.118 164.622L227.925 170.454" stroke="white" stroke-width="0.462858" stroke-miterlimit="10" stroke-linecap="round"/>
<path d="M235.127 155.032C235.127 156.384 234.645 157.689 233.766 158.717L233.118 159.476L227.925 165.308" stroke="white" stroke-width="0.462858" stroke-miterlimit="10" stroke-linecap="round"/>
<path d="M232.146 184.951H236.136" stroke="white" stroke-width="0.462858" stroke-miterlimit="10" stroke-linecap="round"/>
<path d="M251.753 196.532V202.512C250.041 202.438 248.217 202.327 246.338 202.161C239.404 201.559 233.331 200.43 229.934 199.245L230.443 195.894C233.924 195.384 239.747 195.357 246.347 195.931C248.217 196.106 250.031 196.301 251.753 196.532Z" fill="#FE5244"/>
<path d="M206.949 240.936H155.322V189.753C155.322 191.938 163.811 193.706 174.29 193.706C184.769 193.706 193.258 191.938 193.258 189.753V189.744L206.949 240.936Z" fill="#3FB1B5"/>
<path d="M193.119 188.736C193.119 190.93 184.723 192.698 174.355 192.698C163.987 192.698 155.59 190.93 155.59 188.745V188.736C155.618 186.56 164.005 184.792 174.355 184.792C184.704 184.792 193.1 186.56 193.119 188.736Z" fill="#66B0F0"/>
<path d="M193.119 188.774C193.054 190.941 184.676 192.699 174.354 192.699C172.364 192.699 170.457 192.635 168.661 192.514V173.472H158.867C157.617 173.472 156.608 172.463 156.608 171.214V169.686C156.608 169.001 156.914 168.39 157.395 167.974C156.914 167.557 156.608 166.946 156.608 166.261V164.734C156.608 164.132 156.849 163.576 157.238 163.178C156.849 162.771 156.608 162.225 156.608 161.623V160.096C156.608 159.476 156.858 158.911 157.266 158.494C156.858 158.087 156.608 157.522 156.608 156.902V154.134C156.608 152.884 157.617 151.875 158.867 151.875H171.374C171.79 151.635 172.466 150.783 171.318 150.283L168.633 149.654C166.504 148.589 165.153 146.821 165.153 144.433H174.595C176.178 144.433 177.594 145.432 178.131 146.923L192.887 188.117L193.119 188.774Z" fill="#E57281"/>
<path d="M193.165 188.792C193.137 188.764 193.119 188.746 193.119 188.746C193.119 190.93 184.722 192.699 174.354 192.699C172.364 192.699 170.457 192.634 168.661 192.513V184.987C170.457 184.867 172.373 184.802 174.354 184.802C183.704 184.802 191.462 186.246 192.887 188.126C192.924 188.172 193.026 188.422 193.165 188.792Z" fill="#9A3B82"/>
<path d="M171.586 126.14V133.648C171.586 137.73 168.281 141.035 164.199 141.035C160.117 141.035 156.812 137.73 156.812 133.648V126.14C156.812 127.973 160.117 129.454 164.199 129.454C168.281 129.454 171.586 127.973 171.586 126.14Z" fill="white"/>
<path d="M164.199 129.454C168.279 129.454 171.586 127.971 171.586 126.14C171.586 124.31 168.279 122.826 164.199 122.826C160.119 122.826 156.812 124.31 156.812 126.14C156.812 127.971 160.119 129.454 164.199 129.454Z" fill="#FFCF2D"/>
<path d="M171.586 113.31V133.638C171.586 136.378 170.096 138.767 167.883 140.044C167.883 140.044 167.883 140.044 167.874 140.044C166.791 140.664 165.532 141.026 164.199 141.026C162.866 141.026 161.616 140.674 160.533 140.054C160.524 140.054 160.524 140.044 160.515 140.044C158.302 138.767 156.812 136.378 156.812 133.638V113.31H171.586Z" stroke="#FFCF2D" stroke-width="0.55543" stroke-miterlimit="10"/>
<path d="M164.199 116.624C168.325 116.624 171.67 115.14 171.67 113.31C171.67 111.479 168.325 109.996 164.199 109.996C160.073 109.996 156.729 111.479 156.729 113.31C156.729 115.14 160.073 116.624 164.199 116.624Z" fill="white" stroke="#FFCF2D" stroke-width="0.462858" stroke-miterlimit="10"/>
<path d="M164.199 113.81C164.802 113.81 165.291 113.321 165.291 112.717C165.291 112.114 164.802 111.625 164.199 111.625C163.596 111.625 163.107 112.114 163.107 112.717C163.107 113.321 163.596 113.81 164.199 113.81Z" fill="#FFCF2D"/>
<path d="M161.792 136.12C162.324 136.12 162.755 135.689 162.755 135.157C162.755 134.625 162.324 134.194 161.792 134.194C161.261 134.194 160.83 134.625 160.83 135.157C160.83 135.689 161.261 136.12 161.792 136.12Z" fill="white" stroke="#FFCF2D" stroke-width="0.462858" stroke-miterlimit="10"/>
<path d="M167.569 126.936C168.008 126.936 168.365 126.58 168.365 126.14C168.365 125.701 168.008 125.344 167.569 125.344C167.129 125.344 166.772 125.701 166.772 126.14C166.772 126.58 167.129 126.936 167.569 126.936Z" fill="white"/>
<path d="M159.866 132.907C160.306 132.907 160.663 132.55 160.663 132.111C160.663 131.671 160.306 131.314 159.866 131.314C159.427 131.314 159.07 131.671 159.07 132.111C159.07 132.55 159.427 132.907 159.866 132.907Z" fill="#FFCF2D"/>
<path d="M171.299 178.656H157.099C156.839 178.656 156.765 178.314 156.988 178.193L161.949 176.314C162.727 176.018 163.245 175.268 163.245 174.435V144.849C163.245 142.886 162.227 141.044 160.533 140.054C161.616 140.674 162.866 141.026 164.199 141.026C165.541 141.026 166.791 140.665 167.874 140.044C166.171 141.026 165.152 142.877 165.152 144.84V174.426C165.152 175.259 165.671 176.009 166.448 176.305L171.41 178.184C171.632 178.314 171.558 178.656 171.299 178.656Z" fill="white" stroke="#FFCF2D" stroke-width="0.462858" stroke-miterlimit="10"/>
<path d="M158.941 102.192C159.636 102.192 160.2 101.628 160.2 100.933C160.2 100.237 159.636 99.6738 158.941 99.6738C158.246 99.6738 157.682 100.237 157.682 100.933C157.682 101.628 158.246 102.192 158.941 102.192Z" fill="#FFCF2D"/>
<path d="M167.568 104.219C168.172 104.219 168.661 103.73 168.661 103.127C168.661 102.524 168.172 102.035 167.568 102.035C166.965 102.035 166.476 102.524 166.476 103.127C166.476 103.73 166.965 104.219 167.568 104.219Z" fill="white" stroke="#FFCF2D" stroke-width="0.462858" stroke-miterlimit="10"/>
<path d="M162.218 108.477C162.657 108.477 163.014 108.121 163.014 107.681C163.014 107.241 162.657 106.885 162.218 106.885C161.778 106.885 161.422 107.241 161.422 107.681C161.422 108.121 161.778 108.477 162.218 108.477Z" fill="white" stroke="#FFCF2D" stroke-width="0.462858" stroke-miterlimit="10"/>
<path d="M161.801 98.7847C162.164 98.7847 162.459 98.4905 162.459 98.1275C162.459 97.7645 162.164 97.4702 161.801 97.4702C161.438 97.4702 161.144 97.7645 161.144 98.1275C161.144 98.4905 161.438 98.7847 161.801 98.7847Z" fill="#FFCF2D"/>
<path d="M173.716 154.846V173.48H158.867C157.617 173.48 156.608 172.471 156.608 171.222V169.694C156.608 169.009 156.914 168.398 157.395 167.982C156.914 167.565 156.608 166.954 156.608 166.269V164.742C156.608 164.14 156.849 163.584 157.238 163.186C156.849 162.779 156.608 162.233 156.608 161.631V160.104C156.608 159.484 156.858 158.919 157.266 158.502C156.858 158.095 156.608 157.53 156.608 156.91V154.855H173.716V154.846Z" fill="#E57281"/>
<path d="M156.868 166.14C156.868 167.556 158.016 168.704 159.432 168.704H171.448C172.864 168.704 174.012 167.556 174.012 166.14" stroke="#9A3B82" stroke-width="0.462858" stroke-miterlimit="10" stroke-linecap="round"/>
<path d="M156.868 161.521C156.868 162.937 158.016 164.085 159.432 164.085H171.448C172.864 164.085 174.012 162.937 174.012 161.521" stroke="#9A3B82" stroke-width="0.462858" stroke-miterlimit="10" stroke-linecap="round"/>
<path d="M156.868 156.901C156.868 158.317 158.016 159.465 159.432 159.465H171.448C172.864 159.465 174.012 158.317 174.012 156.901" stroke="#9A3B82" stroke-width="0.462858" stroke-miterlimit="10" stroke-linecap="round"/>
<path d="M159.312 173.322H171.448C172.864 173.322 174.012 172.174 174.012 170.758V153.438" stroke="#9A3B82" stroke-width="0.462858" stroke-miterlimit="10" stroke-linecap="round"/>
<path d="M162.663 153.364H161.432C161.024 153.364 160.691 153.698 160.691 154.105C160.691 154.512 161.024 154.846 161.432 154.846H168.319C169.06 154.846 169.671 154.244 169.671 153.494C169.671 152.605 170.393 151.883 171.281 151.883H172.401C173.29 151.883 174.012 152.605 174.012 153.494V156.493" stroke="#9A3B82" stroke-width="0.462858" stroke-miterlimit="10" stroke-linecap="round"/>
<path d="M246.717 57.9606L215.9 89.5646L180.371 50.3975L219.15 23.1074L246.717 57.9606Z" fill="#3FB1B5"/>
<path d="M214.697 91.0828L177.418 50.2217L218.298 21.5615" stroke="#FFCF2D" stroke-width="0.55543" stroke-miterlimit="10"/>
<path d="M215.299 56.331L217.623 55.9885C221.446 55.4238 224.991 58.0714 225.556 61.8853L227.583 75.697C228.268 80.3534 233.267 83.0194 237.516 80.9828L247.209 76.345" stroke="#FFCF2D" stroke-width="0.55543" stroke-miterlimit="10"/>
<path d="M259.567 78.9931C260.557 79.53 261.492 80.0855 262.344 80.6409C262.196 81.4463 261.918 82.2424 261.511 83.0107C261.103 83.7698 260.585 84.4456 259.992 85.0103C259.057 84.6029 258.076 84.1308 257.086 83.5939C252.133 80.9186 248.68 77.7249 249.365 76.4566C250.05 75.1884 254.614 76.3178 259.567 78.9931Z" fill="#FFCF2D"/>
<path d="M248.31 77.206C248.929 77.206 249.43 76.7046 249.43 76.0859C249.43 75.4673 248.929 74.9658 248.31 74.9658C247.691 74.9658 247.19 75.4673 247.19 76.0859C247.19 76.7046 247.691 77.206 248.31 77.206Z" stroke="#66B0F0" stroke-width="0.55543" stroke-miterlimit="10"/>
<path d="M138.167 206.262V240.94H98.093V220.509C98.9632 222.786 109.165 221.333 120.051 217.167C129.845 213.418 137.408 208.808 138.167 206.262Z" fill="#8670E1"/>
<path d="M138.168 205.252C137.399 207.798 129.845 212.408 120.042 216.157C109.165 220.323 98.9636 221.777 98.0841 219.499C97.2047 217.222 105.999 212.066 116.885 207.9C127.763 203.734 137.297 202.207 138.168 204.484C138.26 204.716 138.26 204.975 138.168 205.252Z" fill="#66B0F0"/>
<path d="M129.679 182.258V211.64L127.466 212.76C125.226 213.852 122.717 214.935 120.051 215.954C115.154 217.833 110.387 219.157 106.554 219.842L108.758 211.186L112.349 197.06C110.646 197.06 109.035 196.301 107.952 194.986L93.2056 178.212C95.7328 175.907 99.5097 179.045 99.5097 179.045L98.0934 171.816C97.7601 170.103 98.26 168.326 99.4356 167.039L103.916 162.123C104.805 161.151 106.406 161.531 106.777 162.79L109.961 173.778C109.961 173.778 117.867 179.814 119.348 179.814C121.023 179.814 121.607 178.453 118.478 173.982C116.126 170.621 118.478 168.168 118.478 168.168L126.133 174.611C128.383 176.518 129.679 179.314 129.679 182.258Z" fill="white" stroke="#FFCF2D" stroke-width="0.462858" stroke-miterlimit="10"/>
<path d="M112.803 180.545L107.202 176.065L104.138 165.493C103.786 164.28 102.296 163.919 101.444 164.854" stroke="#FFCF2D" stroke-width="0.462858" stroke-miterlimit="10"/>
<path d="M109.137 182.517L104.268 178.555L101.37 168.548C101.037 167.4 99.5742 167.058 98.7688 167.947" stroke="#FFCF2D" stroke-width="0.462858" stroke-miterlimit="10"/>
<path d="M104.832 183.525L99.4998 179.054" stroke="#FFCF2D" stroke-width="0.462858" stroke-miterlimit="10"/>
<path d="M112.349 197.061H118.579" stroke="#FFCF2D" stroke-width="0.462858" stroke-miterlimit="10"/>
<path d="M129.679 204.067V211.834C126.92 213.297 123.634 214.778 120.051 216.157C115.145 218.036 110.378 219.36 106.536 220.045L108.758 211.381C111.22 210.196 113.979 209.011 116.895 207.9C121.607 206.104 126.069 204.789 129.679 204.067Z" fill="#FFCF2D"/>
<path d="M123.402 106.256L126.217 112.431C126.485 114.717 124.856 116.782 122.569 117.059C120.283 117.328 118.654 119.402 118.922 121.688L119.329 125.113" stroke="#FFCF2D" stroke-width="0.55543" stroke-miterlimit="10"/>
<path d="M155.969 86.4189L170.799 63.276L119.792 62.8687L103.083 107.359L130.669 106.063L155.969 86.4189Z" fill="#8670E1"/>
<path d="M171.41 61.5348L118.079 60.9331L100.37 107.626" stroke="#FFCF2D" stroke-width="0.55543" stroke-miterlimit="10"/>
<path d="M155.053 82.9469C158.015 88.0291 152.979 96.4902 143.796 101.841C134.613 107.191 124.772 107.404 121.81 102.322C121.403 101.628 121.153 100.878 121.032 100.073C120.292 94.9905 125.133 88.0476 133.067 83.4283C141 78.809 149.424 78.0129 153.479 81.1603C154.118 81.6602 154.645 82.2526 155.053 82.9469Z" fill="#66B0F0" stroke="white" stroke-width="0.55543" stroke-miterlimit="10"/>
<path d="M152.701 78.9109L155.053 82.947C154.645 82.2527 154.118 81.6603 153.479 81.1604C149.424 78.0129 141 78.8091 133.067 83.4284C125.133 88.0477 120.301 94.9906 121.032 100.073C121.144 100.878 121.403 101.628 121.81 102.322L119.459 98.2861C116.496 93.2039 121.532 84.7429 130.715 79.3923C139.889 74.0509 149.739 73.8287 152.701 78.9109Z" stroke="white" stroke-width="0.462858" stroke-miterlimit="10" stroke-linecap="round"/>
<path d="M118.533 137.593C118.172 138.657 117.783 139.676 117.376 140.611C116.552 140.601 115.719 140.462 114.904 140.185C114.08 139.907 113.34 139.518 112.673 139.028C112.914 138.037 113.21 136.991 113.571 135.926C115.367 130.594 117.922 126.651 119.292 127.104C120.662 127.567 120.32 132.261 118.533 137.593Z" fill="#FFCF2D"/>
<path d="M119.477 127.122C120.096 127.122 120.597 126.62 120.597 126.001C120.597 125.383 120.096 124.881 119.477 124.881C118.859 124.881 118.357 125.383 118.357 126.001C118.357 126.62 118.859 127.122 119.477 127.122Z" stroke="#66B0F0" stroke-width="0.55543" stroke-miterlimit="10"/>
<path d="M71.6827 203.048V240.938H30.0625V185.173C30.8771 187.904 39.5881 193.597 50.4005 198.355C61.9071 203.437 71.442 205.529 71.6827 203.048Z" fill="#66B0F0"/>
<path d="M71.6827 202.04C71.4327 204.521 61.9071 202.419 50.4005 197.347C39.5881 192.579 30.8771 186.886 30.0625 184.164C30.0069 183.988 29.9884 183.822 30.0069 183.674C30.2476 181.193 39.7825 183.294 51.2892 188.367C62.7958 193.44 71.9326 199.559 71.6827 202.04Z" fill="#9A3B82"/>
<path d="M47.0486 147.69C48.0391 145.654 50.1035 144.358 52.3715 144.358H58.9163L59.2588 170.667L63.8226 194.846L65.276 202.53C61.425 201.678 56.1669 199.892 50.409 197.355C47.1505 195.92 43.068 193.791 40.3464 192.291V160.28C40.3464 159.845 40.4298 159.41 40.5779 159.003L47.0486 147.69Z" fill="#A0505A"/>
<path d="M65.2674 202.529C61.4164 201.677 56.1584 199.891 50.4004 197.354C47.1419 195.919 43.0595 193.79 40.3379 192.291V184.246C43.3094 185.2 47.7066 186.792 51.2891 188.366C56.1214 190.495 60.3426 192.689 63.8233 194.846L65.2674 202.529Z" fill="#73325A"/>
<path d="M89.6417 114.781L54.8255 178.84C53.5387 181.21 49.9932 181.775 46.9106 180.099C43.828 178.424 42.3746 175.147 43.6613 172.768L78.4775 108.708L89.6417 114.781Z" fill="white" stroke="#FFCF2D" stroke-width="0.462858" stroke-miterlimit="10"/>
<path d="M89.6354 114.797C90.9244 112.425 89.4713 109.145 86.3899 107.47C83.3084 105.795 79.7655 106.36 78.4765 108.732C77.1875 111.104 78.6406 114.384 81.7221 116.059C84.8035 117.733 88.3464 117.168 89.6354 114.797Z" fill="#66B0F0" stroke="#FFCF2D" stroke-width="0.462858" stroke-miterlimit="10"/>
<path d="M66.897 139.303L83.347 125.871L83.0877 130.647L88.3551 131.962L76.3578 139.368C79.5793 138.812 83.458 138.359 86.6518 138.608C90.4564 138.905 89.179 143.357 87.7534 147.162C91.0859 146.838 102.259 140.071 106.471 141.349C109.045 142.126 108.119 147.375 107.379 150.272C108.452 150.328 113.886 150.263 113.886 150.263L111.017 152.883L112.59 155.503C106.481 155.771 106.407 154.808 107.175 150.476C107.304 145.764 102.083 150.291 90.9656 152.948C85.4576 154.262 86.1704 150.68 87.5312 146.949C86.985 145.237 82.9026 143.376 69.7852 146.801L66.897 139.303Z" fill="#FE5244"/>
<path d="M67.1378 147.486C69.822 147.486 71.9979 145.31 71.9979 142.626C71.9979 139.942 69.822 137.766 67.1378 137.766C64.4537 137.766 62.2778 139.942 62.2778 142.626C62.2778 145.31 64.4537 147.486 67.1378 147.486Z" fill="white" stroke="#FE5244" stroke-width="0.462858" stroke-miterlimit="10"/>
<path d="M65.4619 144.358V144.663C65.4619 147.774 62.9439 150.301 59.8243 150.301H53.9089V144.358H65.4619Z" fill="#A0505A"/>
<path d="M72.6641 155.772L71.0996 159.437L69.276 163.723L68.2855 166.047L66.7765 169.592C66.7395 169.685 66.684 169.787 66.6377 169.87C66.6377 169.879 66.6284 169.879 66.6284 169.889C66.1471 170.722 65.2121 171.24 64.1845 171.24H52.1965C50.7431 171.24 49.7526 169.861 50.2895 168.593L51.1597 166.547L53.0759 162.048L54.7237 158.169L56.1771 154.763C56.6029 153.763 57.6305 153.105 58.7784 153.105H70.7664C72.2105 153.124 73.201 154.503 72.6641 155.772Z" fill="#A0505A"/>
<path d="M55.2236 158.188C55.7235 157.632 56.4456 157.299 57.2232 157.299H68.6743C69.8777 157.299 70.7479 158.336 70.6276 159.437" stroke="#73325A" stroke-width="0.462858" stroke-miterlimit="10" stroke-linecap="round"/>
<path d="M53.6685 162.066C54.1591 161.576 54.8349 161.289 55.5662 161.289H67.0173C68.3318 161.289 69.239 162.511 68.9057 163.714" stroke="#73325A" stroke-width="0.462858" stroke-miterlimit="10" stroke-linecap="round"/>
<path d="M51.8723 166.556C52.3629 166.093 53.0202 165.824 53.7237 165.824H65.1749C66.5264 165.824 67.4614 167.139 67.0263 168.379" stroke="#73325A" stroke-width="0.462858" stroke-miterlimit="10" stroke-linecap="round"/>
<path d="M93.2795 48.1015C94.0479 47.2776 94.8162 46.5092 95.5753 45.8242C96.3159 46.1667 97.0194 46.6389 97.6582 47.2313C98.2876 47.8238 98.8153 48.4903 99.2134 49.2031C98.5839 50.0085 97.8803 50.8323 97.112 51.6562C93.2795 55.7757 89.3267 58.3214 88.2621 57.3401C87.2068 56.3589 89.4471 52.2209 93.2795 48.1015Z" fill="#FFCF2D"/>
<path d="M66.3781 80.7234L65.1562 81.4825C60.722 84.2319 52.0851 78.3166 45.8735 68.2725C39.6527 58.2285 38.2086 47.8697 42.6335 45.1204L43.8925 44.3428L51.3815 66.3748L66.3781 80.7234Z" fill="#66B0F0"/>
<path d="M78.7831 92.6004L66.3785 80.7235L51.3726 66.3656L43.8836 44.3428L37.1907 24.6528L68.3595 49.7675L78.7831 92.6004Z" fill="#66B0F0" stroke="white" stroke-width="0.55543" stroke-miterlimit="10"/>
<path d="M79.7551 91.4244L69.4056 48.6655L37.8479 23.8101" stroke="#9A3B82" stroke-width="0.55543" stroke-miterlimit="10"/>
<path d="M62.3146 62.3197C61.5185 59.0242 63.5458 55.7008 66.8413 54.9047C69.9703 54.1456 73.1455 55.9323 74.1267 58.9871L76.728 67.3834C78.1629 72.0305 84.8558 71.6694 85.7908 66.8928L87.2904 59.1815" stroke="#FFCF2D" stroke-width="0.55543" stroke-miterlimit="10"/>
<path d="M87.6421 59.395C88.2607 59.395 88.7622 58.8935 88.7622 58.2749C88.7622 57.6563 88.2607 57.1548 87.6421 57.1548C87.0235 57.1548 86.522 57.6563 86.522 58.2749C86.522 58.8935 87.0235 59.395 87.6421 59.395Z" stroke="#66B0F0" stroke-width="0.55543" stroke-miterlimit="10"/>
</svg>
