<svg width="375" height="263" viewBox="0 0 375 263" fill="none" xmlns="http://www.w3.org/2000/svg">
<path d="M319.253 239.535L230.835 239.692C219.998 239.767 208.485 239.805 196.545 239.805C167.483 239.805 140.918 239.565 120.6 239.167H38.8125C38.8125 224.722 54.7125 231.067 58.905 233.617C63.78 236.58 57.5025 220.807 67.455 220.807C75.975 220.807 80.85 225.09 80.85 225.09C80.85 225.09 81.0825 216.765 89.16 216.645C97.2375 216.525 102.368 223.642 108.743 229.5C111.375 231.915 114.54 233.835 117.533 235.297C138.21 234.862 165.99 234.592 196.545 234.592C211.02 234.592 224.865 234.652 237.638 234.765C260.333 234.765 281.115 222.832 287.01 219.84C301.575 212.43 294.675 230.092 294.675 230.092C294.675 230.092 305.902 225.367 313.8 225.405C324.953 225.45 319.253 239.535 319.253 239.535Z" fill="#D0F0E4"/>
<path d="M273.375 239.099C273.375 239.099 275.61 218.984 261.06 212.512C261.06 212.512 258.915 234.397 266.175 232.964C268.898 232.424 263.055 227.114 253.53 226.889C253.53 226.889 260.828 239.152 269.693 239.324" stroke="#FFCF2D" stroke-width="0.45" stroke-miterlimit="10"/>
<path d="M269.722 239.295C269.722 239.295 270.562 230.092 279.532 227.227C287.632 224.647 273.457 239.07 273.457 239.07" stroke="#FFCF2D" stroke-width="0.45" stroke-miterlimit="10"/>
<path d="M68.3024 238.455C68.3024 238.455 55.4399 229.642 51.8174 215.265C51.8174 215.265 63.2024 218.67 68.0324 225.915C68.0324 225.915 70.0124 209.422 74.7974 203.872C74.7974 203.872 77.3849 207.592 77.7074 221.377C77.7074 221.377 83.5724 211.387 87.9374 208.162C87.9374 208.162 87.3374 221.16 84.2174 227.797C84.2174 227.797 88.7249 224.287 91.7699 227.73C94.8149 231.172 88.8449 236.212 88.8449 236.212" stroke="#FE5244" stroke-width="0.375" stroke-miterlimit="10"/>
<path d="M74.8049 204.359C74.8049 204.359 74.9324 234.404 73.5674 238.297" stroke="#FE5244" stroke-width="0.375" stroke-miterlimit="10"/>
<path d="M87.5174 208.919C87.5174 208.919 78.5474 231.967 73.5674 238.297" stroke="#FE5244" stroke-width="0.375" stroke-miterlimit="10"/>
<path d="M84.0824 227.902C83.7524 229.11 81.4799 232.44 81.0299 231.007C80.5874 229.575 84.6749 227.257 85.7024 226.875" stroke="#FE5244" stroke-width="0.375" stroke-miterlimit="10"/>
<path d="M68.0399 225.922C68.6474 227.092 70.7024 230.377 68.6249 230.294C67.2674 230.242 68.4074 223.349 68.4074 223.349" stroke="#FE5244" stroke-width="0.375" stroke-miterlimit="10"/>
<path d="M237.607 213.758C232.507 216.255 232.987 221.048 232.942 224.265C232.89 227.693 226.35 229.485 226.35 229.485C228.09 224.003 226.852 218.355 226.852 218.355L237.607 213.758Z" fill="#A0505A"/>
<path d="M243.015 226.38L241.852 227.01L239.415 221.438C239.287 221.145 239.002 220.973 238.71 220.973C238.612 220.973 238.507 220.995 238.41 221.033C238.162 221.138 237.982 221.37 237.952 221.64L236.88 229.718L222.772 237.398C222.352 236.393 224.97 233.873 226.357 229.485C226.357 229.485 232.905 227.693 232.95 224.265C232.995 221.048 232.522 216.248 237.615 213.758L238.687 213.3C244.537 215.993 243.015 226.38 243.015 226.38Z" fill="#FFCF2D"/>
<path d="M238.68 173.73V213.3L227.01 218.362L218.265 178.635C222.18 178.785 228.705 177.96 238.68 173.73Z" fill="white" stroke="#9A3B82" stroke-width="0.375" stroke-miterlimit="10"/>
<path d="M230.1 177.21L232.402 216.007" stroke="#9A3B82" stroke-width="0.375" stroke-miterlimit="10"/>
<path d="M238.68 173.73V184.087L218.82 181.215L218.265 178.635C222.18 178.785 228.705 177.96 238.68 173.73Z" fill="#9A3B82"/>
<path d="M297.495 146.88L289.95 148.47C289.695 148.522 289.44 148.44 289.26 148.252C289.132 148.11 289.065 147.937 289.065 147.757C289.065 147.562 289.14 147.367 289.297 147.225L293.497 143.287L292.567 142.455C292.567 142.455 282.817 144.367 282.262 150.45L283.005 151.26C286.837 155.025 290.97 153.082 293.857 152.107C296.617 151.177 299.91 155.46 300.562 156.345C300.57 156.345 300.585 156.345 300.592 156.345C304.942 156.202 308.025 157.747 308.782 157.05L297.495 146.88Z" fill="#FFCF2D"/>
<path d="M283.012 151.26C286.845 155.025 290.977 153.082 293.865 152.107C296.94 151.072 300.607 156.345 300.607 156.345C295.162 156.517 290.52 159.405 290.52 159.405L283.012 151.26Z" fill="#A0505A"/>
<path d="M236.422 174.067C236.422 174.067 238.32 186.885 252.877 186.645C267.435 186.405 290.362 159.33 290.362 159.33L282.3 150.495L236.422 174.067Z" fill="white" stroke="#9A3B82" stroke-width="0.375" stroke-miterlimit="10"/>
<path d="M244.815 170.587C245.295 173.962 247.56 177.142 254.467 177.03C264.727 176.865 279.225 163.402 286.89 155.467" stroke="#9A3B82" stroke-width="0.375" stroke-miterlimit="10"/>
<path d="M299.962 124.35C298.635 123.847 295.478 125.572 293.1 128.572C290.542 131.79 289.508 135.21 290.633 136.102L254.61 116.947C252.84 116.01 250.8 117.615 251.302 119.55L262.208 160.86C225.27 184.83 213.427 177.645 213.427 177.645V41.8948C213.427 41.9023 213.427 41.9023 213.435 41.9098C213.75 42.7123 217.133 42.1498 220.995 40.6423C224.55 39.2623 227.265 37.5673 227.437 36.6823L227.445 36.6748V79.4473C227.445 82.1323 228.893 84.5998 231.233 85.9123L299.962 124.35Z" fill="#FE5244"/>
<path d="M299.962 124.35C298.635 123.847 295.478 125.572 293.1 128.572C290.542 131.79 289.508 135.21 290.633 136.102L254.61 116.947C252.84 116.01 250.8 117.615 251.302 119.55L262.208 161.025C252.818 167.122 245.047 171.037 238.68 173.737C228.705 177.96 222.18 178.792 218.265 178.642C214.852 178.515 213.427 177.645 213.427 177.645V41.8948C213.427 41.9023 213.427 41.9023 213.435 41.9098C213.75 42.7123 217.133 42.1498 220.995 40.6423C224.55 39.2623 227.265 37.5673 227.437 36.6823L227.445 36.6748V79.4473C227.445 82.1323 228.893 84.5998 231.233 85.9123L299.962 124.35Z" fill="#8670E1"/>
<path d="M248.295 113.618L290.633 136.583" stroke="white" stroke-width="0.45" stroke-miterlimit="10" stroke-linecap="round"/>
<path d="M232.237 86.4673L227.49 114.06L251.722 97.3723L232.237 86.4673Z" fill="#FFCF2D"/>
<path d="M232.237 86.4673L227.49 114.06L251.722 97.3723" stroke="white" stroke-width="0.45" stroke-miterlimit="10" stroke-linecap="round"/>
<path d="M232.043 33.2098L200.76 39.6223C199.605 39.8623 198.413 38.8348 198.105 37.3273C197.798 35.8198 198.488 34.4098 199.643 34.1698L230.925 27.7573L232.043 33.2098Z" fill="white" stroke="#3FB1B5" stroke-width="0.375" stroke-miterlimit="10" stroke-linecap="round"/>
<path d="M232.031 33.2142C233.188 32.9771 233.875 31.5646 233.567 30.0592C233.258 28.5538 232.07 27.5256 230.914 27.7627C229.758 27.9997 229.07 29.4122 229.379 30.9176C229.687 32.423 230.875 33.4512 232.031 33.2142Z" fill="white" stroke="#3FB1B5" stroke-width="0.375" stroke-miterlimit="10" stroke-linecap="round"/>
<path d="M214.192 35.9394C214.192 35.9394 204.075 47.3094 205.177 49.8144C206.617 51.2469 207.787 51.8769 207.615 52.4094C207.427 52.9869 205.005 56.4744 205.005 56.4744L204.765 53.8869L202.447 54.6519C202.447 54.6519 204.892 51.0819 205.05 49.9869C204.045 49.2219 201.997 47.6319 202.065 46.5219C202.14 45.3444 205.725 41.1594 208.327 38.2719L204.405 39.5694L203.632 35.9469L210.69 34.6494L214.192 35.9394Z" fill="#FE5244"/>
<path d="M212.82 36.4348C213.996 36.4348 214.95 35.4812 214.95 34.3048C214.95 33.1284 213.996 32.1748 212.82 32.1748C211.644 32.1748 210.69 33.1284 210.69 34.3048C210.69 35.4812 211.644 36.4348 212.82 36.4348Z" fill="white" stroke="#FE5244" stroke-width="0.375" stroke-miterlimit="10"/>
<path d="M227.438 36.6827C227.265 37.5677 224.55 39.2627 220.995 40.6427C217.133 42.1427 213.75 42.7127 213.435 41.9102C213.435 41.9027 213.435 41.9027 213.428 41.8952C213.158 41.0852 216.023 39.2327 219.863 37.7402C223.725 36.2402 227.108 35.6702 227.423 36.4727C227.445 36.5327 227.453 36.6002 227.438 36.6827Z" fill="#9A3B82"/>
<path d="M224.835 30.3823L224.422 36.3373L224.227 39.1873C223.29 39.6823 222.187 40.1773 220.995 40.6423C218.97 41.4298 217.08 41.9548 215.692 42.1722V36.7273L221.385 35.5573C221.385 35.5573 221.7 33.5247 222.3 31.8223C222.892 30.1123 224.835 30.3823 224.835 30.3823Z" fill="#A0505A"/>
<path d="M221.543 35.3101C221.46 35.6476 218.985 36.4351 218.985 38.2351" stroke="#73325A" stroke-width="0.3" stroke-miterlimit="10" stroke-linecap="round"/>
<path d="M224.422 36.3374L224.227 39.1874C223.29 39.6824 222.187 40.1774 220.995 40.6424C218.97 41.4299 217.08 41.9549 215.692 42.1724V39.7124C216.802 39.0599 218.25 38.3699 219.862 37.7399C221.542 37.0799 223.132 36.5999 224.422 36.3374Z" fill="#73325A"/>
<path d="M220.695 33.3599L214.342 34.8149C214.005 34.8899 213.69 34.6199 213.69 34.2449V30.3899C213.69 29.8724 214.005 29.4224 214.462 29.2724L220.74 27.2249C221.137 27.0974 221.535 27.4124 221.535 27.8549V32.2499C221.527 32.7824 221.182 33.2474 220.695 33.3599Z" fill="#A0505A"/>
<path d="M215.94 34.215C215.595 34.29 215.265 34.0275 215.265 33.6675V29.97C215.265 29.475 215.588 29.04 216.06 28.8975" stroke="#73325A" stroke-width="0.3" stroke-miterlimit="10" stroke-linecap="round"/>
<path d="M217.77 33.8178C217.425 33.8928 217.095 33.6228 217.095 33.2553V29.4453C217.095 28.9353 217.417 28.4853 217.89 28.3428" stroke="#73325A" stroke-width="0.3" stroke-miterlimit="10" stroke-linecap="round"/>
<path d="M219.818 33.3822C219.473 33.4572 219.143 33.1797 219.143 32.8047V28.8597C219.143 28.3347 219.465 27.8697 219.938 27.7197" stroke="#73325A" stroke-width="0.3" stroke-miterlimit="10" stroke-linecap="round"/>
<path d="M297.173 131.805C294.615 135.03 291.75 136.988 290.625 136.095C289.5 135.203 290.535 131.79 293.092 128.565C295.477 125.565 298.627 123.84 299.955 124.343L300.217 124.493C301.35 125.393 299.73 128.588 297.173 131.805Z" fill="#9A3B82"/>
<path d="M308.745 137.227L307.042 138.127C306.367 138.487 305.527 138.232 305.167 137.557L303.375 134.227L300.66 133.297C300.96 133.41 302.13 134.01 301.762 136.192L295.387 133.815L293.197 132.997L291.12 131.67C291.607 130.68 292.275 129.615 293.107 128.572C293.805 127.695 294.562 126.93 295.32 126.3L297.487 127.815L299.707 128.055L303.315 128.437C303.892 128.497 304.447 128.692 304.935 129L307.815 131.047C308.235 131.347 308.512 131.797 308.58 132.307L309.165 136.402C309.217 136.74 309.045 137.07 308.745 137.227Z" fill="#A0505A"/>
<path d="M304.552 130.56L307.05 132.338C307.41 132.593 307.65 132.99 307.717 133.433L308.228 136.74C308.265 137.033 308.122 137.318 307.86 137.453" stroke="#73325A" stroke-width="0.3" stroke-miterlimit="10" stroke-linecap="round"/>
<path d="M303.008 131.152L305.505 132.93C305.865 133.185 306.105 133.582 306.173 134.025L306.683 137.332C306.72 137.625 306.578 137.91 306.315 138.045" stroke="#73325A" stroke-width="0.3" stroke-miterlimit="10" stroke-linecap="round"/>
<path d="M300.66 133.29L298.845 132.675" stroke="#73325A" stroke-width="0.3" stroke-miterlimit="10" stroke-linecap="round"/>
<path d="M299.707 128.055C299.1 129.202 298.215 130.507 297.18 131.812C296.587 132.555 295.987 133.23 295.387 133.815L293.197 132.997L291.12 131.67C291.607 130.68 292.275 129.615 293.107 128.572C293.805 127.695 294.562 126.93 295.32 126.3L297.487 127.815L299.707 128.055Z" fill="#73325A"/>
<path d="M234.218 66.4434L250.26 73.5609L255.983 90.3009L244.358 81.9909L238.935 75.3684L234.218 66.4434Z" fill="#8670E1"/>
<path d="M238.935 75.3684C238.935 75.3684 244.185 76.2684 246.3 82.1184L247.418 80.9934C247.418 80.9934 245.385 75.3009 240.015 73.8384L238.935 75.3684Z" fill="#9A3B82"/>
<path d="M270.225 82.6356C268.425 81.6156 266.76 81.0531 266.227 81.2556C266.265 81.1656 266.287 81.0606 266.28 80.9556C266.25 80.6256 265.98 80.3781 265.657 80.3781C265.642 80.3781 265.627 80.3781 265.605 80.3781C265.26 80.4081 265.005 80.7081 265.027 81.0531C265.027 81.0756 265.035 81.0981 265.035 81.1131L263.13 82.3356C262.702 82.6131 262.177 82.6281 261.727 82.3806C261.277 82.1331 261.015 81.6831 261.015 81.1731V78.4356C261.015 77.2431 260.422 76.1406 259.425 75.4806C258.427 74.8206 257.175 74.7156 256.08 75.1806L252.45 76.8006L251.07 72.7581L234.945 65.6106C234.847 65.5656 234.727 65.6106 234.682 65.7156C234.637 65.8131 234.682 65.9331 234.787 65.9781L250.747 73.0581L256.44 89.7156C256.47 89.7981 256.545 89.8506 256.627 89.8506C256.65 89.8506 256.672 89.8431 256.695 89.8431C256.8 89.8056 256.852 89.6931 256.822 89.5881L252.585 77.1831L256.245 75.5481C257.22 75.1281 258.33 75.2256 259.207 75.8106C260.092 76.3956 260.617 77.3706 260.617 78.4356V81.1731C260.617 81.8331 260.962 82.4181 261.54 82.7331C261.81 82.8831 262.102 82.9581 262.395 82.9581C262.725 82.9581 263.055 82.8606 263.347 82.6731L265.237 81.4656C265.35 81.5706 265.5 81.6306 265.657 81.6306C265.672 81.6306 265.695 81.6306 265.71 81.6306C265.845 81.6231 265.965 81.5706 266.055 81.4881C266.055 82.0206 267.42 83.2131 269.295 84.2781C269.7 84.5106 270.105 84.7206 270.487 84.9006C270.72 84.7056 270.915 84.4731 271.072 84.1956C271.23 83.9256 271.327 83.6331 271.372 83.3331C271.012 83.1081 270.63 82.8681 270.225 82.6356ZM265.672 81.3156C265.5 81.3306 265.357 81.2031 265.342 81.0381C265.327 80.8731 265.455 80.7231 265.62 80.7081C265.785 80.6931 265.935 80.8206 265.95 80.9856C265.965 81.1506 265.837 81.3006 265.672 81.3156Z" fill="#FFCF2D"/>
<path d="M237.892 85.2299L235.117 100.665L244.575 93.3749V83.7524L237.892 85.2299Z" fill="#A0505A"/>
<path d="M237.892 85.2299L237.547 87.1649L241.732 95.5649L244.575 93.3749V83.7524L237.892 85.2299Z" fill="#73325A"/>
<path d="M239.093 75.5255C239.093 75.5255 234.36 74.348 232.883 77.093C231.405 79.838 235.725 80.5955 235.905 79.6355C235.988 79.2155 228.128 79.223 229.448 85.1705C230.82 91.3655 237.008 89.2355 237.008 89.2355L237.728 85.2305L239.093 75.5255Z" fill="white" stroke="#9A3B82" stroke-width="0.3" stroke-miterlimit="10"/>
<path d="M244.5 84.4051C244.5 84.4051 237.435 93.6151 243.645 97.5301C248.625 100.665 249.907 96.2476 248.572 95.6401C247.125 94.9801 243.802 107.43 254.032 107.393C264.285 107.355 261.15 94.5526 255.982 90.3076C253.515 88.2826 245.28 82.6201 245.28 82.6201L244.5 84.4051Z" fill="white" stroke="#9A3B82" stroke-width="0.3" stroke-miterlimit="10"/>
<path d="M244.29 82.0955L244.823 82.433C245.34 82.763 245.49 83.4455 245.168 83.963L245.063 84.1205C244.733 84.638 244.05 84.7955 243.533 84.4655L242.963 84.1055C242.333 84.5555 238.545 87.083 236.205 84.5705C233.933 82.133 239.183 75.0005 239.183 75.0005C243.638 76.3955 245.378 80.3555 245.378 80.3555L244.29 82.0955Z" fill="#A0505A"/>
<path d="M237.72 76.6201C237.72 76.6201 238.95 77.0776 238.83 78.1351C238.71 79.1926 237.6 80.8576 237.862 81.1426C238.125 81.4276 238.477 81.4801 238.477 81.4801" stroke="#73325A" stroke-width="0.3" stroke-miterlimit="10" stroke-linecap="round"/>
<path d="M237.42 82.1177C237.42 82.1177 238.335 82.6277 239.58 82.4327" stroke="#73325A" stroke-width="0.3" stroke-miterlimit="10" stroke-linecap="round"/>
<path d="M241.342 80.6169C241.448 80.3382 241.412 80.0657 241.261 80.0081C241.11 79.9506 240.902 80.1298 240.795 80.4085C240.689 80.6872 240.725 80.9597 240.876 81.0173C241.027 81.0748 241.236 80.8956 241.342 80.6169Z" fill="#73325A"/>
<path d="M237.879 79.0283C237.968 78.7961 237.936 78.5684 237.808 78.5197C237.68 78.471 237.505 78.6198 237.417 78.852C237.328 79.0842 237.36 79.3119 237.488 79.3606C237.615 79.4093 237.791 79.2605 237.879 79.0283Z" fill="#73325A"/>
<path d="M243.9 83.3854C244.11 83.0554 244.545 82.9579 244.875 83.1679" stroke="#73325A" stroke-width="0.3" stroke-miterlimit="10" stroke-linecap="round"/>
<path d="M241.133 78.6377C241.133 78.6377 242.048 78.8852 242.52 79.9727" stroke="#73325A" stroke-width="0.3" stroke-miterlimit="10" stroke-linecap="round"/>
<path d="M242.497 76.8154C242.497 76.8154 241.5 80.1229 244.357 82.3804C246.037 83.7079 246.135 82.1104 246.135 82.1104C246.135 82.1104 245.917 78.8629 242.497 76.8154Z" fill="white" stroke="#9A3B82" stroke-width="0.3" stroke-miterlimit="10"/>
<path d="M176.242 161.572C175.455 158.7 162.45 161.392 148.125 166.605C134.422 171.592 123.285 178.32 123.165 181.027L115.65 126.21C115.537 125.437 114.877 124.867 114.097 124.867C113.662 124.867 113.272 125.04 112.987 125.325C112.702 125.61 112.53 126 112.53 126.435V173.25C112.44 171.967 109.132 170.94 105.067 170.94C101.002 170.94 97.7025 171.967 97.605 173.25V120.645C97.605 116.205 99.93 112.095 103.725 109.8L108.652 106.822L128.947 94.5673L147.825 83.0773V63.4648C147.825 64.3048 151.297 64.9798 155.392 64.9798C159.48 64.9798 162.96 64.3123 162.96 63.4648V84.7273C162.96 89.4373 160.657 93.8848 156.982 96.8248L145.5 105.03C143.542 106.425 143.07 109.14 144.435 111.12C152.047 122.137 175.44 154.29 176.235 161.362C176.242 161.43 176.242 161.505 176.242 161.572Z" fill="#3FB1B5"/>
<path d="M147.6 81.397V87.172" stroke="white" stroke-width="0.45" stroke-miterlimit="10" stroke-linecap="round"/>
<path d="M108.667 106.822L133.695 123.562L128.962 94.5674L123.54 97.7774L124.815 109.665L114.06 103.447L108.667 106.822Z" stroke="white" stroke-width="0.45" stroke-miterlimit="10" stroke-linecap="round"/>
<path d="M175.44 162.292C174.54 159.81 162.615 162.675 148.283 167.887C133.95 173.1 122.948 179.692 123.855 182.175C124.755 184.657 137.228 182.092 151.56 176.88C165.893 171.667 176.348 164.775 175.44 162.292Z" stroke="#3FB1B5" stroke-width="0.375" stroke-miterlimit="10" stroke-linecap="round"/>
<path d="M142.8 214.08L141.975 215.52L141.06 217.125C133.147 218.115 131.752 212.94 131.752 212.94L132.945 210.57C136.14 212.535 140.19 213.577 142.8 214.08Z" fill="#E57281"/>
<path d="M171.3 176.423C165.675 186.12 145.447 214.5 145.447 214.5C145.447 214.5 144.39 214.388 142.8 214.08C140.19 213.57 136.14 212.535 132.937 210.57C132.195 210.113 131.505 209.61 130.882 209.048L145.545 179.273L149.25 171.465L151.305 167.13C151.552 167.04 151.8 166.958 152.04 166.875C152.16 166.83 152.28 166.793 152.407 166.748C152.775 166.62 153.135 166.5 153.495 166.38C153.795 166.283 154.087 166.185 154.38 166.08C155.272 165.78 156.15 165.503 157.005 165.233C162.75 163.418 167.662 162.195 170.977 161.82C171.712 162.848 172.552 164.325 173.032 166.178C173.73 168.885 173.647 172.38 171.3 176.423Z" fill="white" stroke="#9A3B82" stroke-width="0.375" stroke-miterlimit="10"/>
<path d="M146.745 236.213C146.49 237.33 145.102 237.728 144.292 236.918L126.165 218.85L131.835 212.933C131.835 212.933 133.147 218.1 141.067 217.118C147.465 226.778 147.45 233.1 146.745 236.213Z" fill="white" stroke="#FE5244" stroke-width="0.375" stroke-miterlimit="10"/>
<path d="M146.002 237.352C144.772 237.825 143.385 237.577 142.387 236.7L132.922 228.382C132.69 228.172 132.66 227.82 132.855 227.572C133.042 227.34 133.027 226.995 132.81 226.785L132.037 226.035C131.827 225.825 131.49 225.817 131.265 226.012L131.085 226.162C130.867 226.35 130.552 226.35 130.342 226.162L125.257 221.745C124.597 221.175 124.575 220.155 125.197 219.547L126.082 218.692L144.322 237.105C144.847 237.63 145.605 237.652 146.145 237.3L146.002 237.352Z" fill="#FE5244"/>
<path d="M143.535 219.532C143.535 219.532 145.072 220.897 141.397 222.555" stroke="#FE5244" stroke-width="0.375" stroke-miterlimit="10" stroke-linecap="round"/>
<path d="M144.502 221.174C144.502 221.174 146.04 222.539 142.365 224.197" stroke="#FE5244" stroke-width="0.375" stroke-miterlimit="10" stroke-linecap="round"/>
<path d="M145.47 222.817C145.47 222.817 147.008 224.182 143.333 225.839" stroke="#FE5244" stroke-width="0.375" stroke-miterlimit="10" stroke-linecap="round"/>
<path d="M173.032 166.178C168.157 166.17 163.162 167.018 158.347 168.353C157.965 167.003 157.425 165.93 157.005 165.233C162.75 163.418 167.662 162.195 170.977 161.82C171.72 162.855 172.56 164.333 173.032 166.178Z" fill="#9A3B82"/>
<path d="M122.197 213.322L120.75 215.174L119.61 216.629C111.637 216.472 111 211.154 111 211.154L112.732 208.672C115.74 211.087 119.805 212.587 122.197 213.322Z" fill="#E57281"/>
<path d="M158.512 174.419C158.077 176.272 157.147 178.267 155.437 180.322C148.417 188.774 124.177 213.869 124.177 213.869C124.177 213.869 114.712 211.739 110.67 206.639L126.99 183.457L133.012 174.899C137.167 172.687 142.447 170.339 148.282 168.209C151.327 167.099 154.26 166.102 157.005 165.232C157.417 165.929 157.965 167.009 158.347 168.352C158.827 170.017 159.06 172.102 158.512 174.419Z" fill="white" stroke="#9A3B82" stroke-width="0.375" stroke-miterlimit="10"/>
<path d="M122.49 236.339C122.077 237.412 120.652 237.607 119.962 236.684L104.61 216.202L111.067 211.154C111.067 211.154 111.622 216.472 119.602 216.629C124.56 227.107 123.637 233.362 122.49 236.339Z" fill="white" stroke="#FE5244" stroke-width="0.375" stroke-miterlimit="10"/>
<path d="M121.597 237.299C120.315 237.591 118.972 237.141 118.117 236.144L109.942 226.574C109.74 226.334 109.762 225.981 109.987 225.764C110.212 225.561 110.235 225.216 110.055 224.976L109.395 224.129C109.215 223.896 108.885 223.836 108.63 223.994L108.435 224.121C108.195 224.271 107.887 224.226 107.7 224.016L103.275 218.939C102.705 218.279 102.825 217.274 103.53 216.764L104.527 216.044L119.955 236.811C120.397 237.404 121.147 237.531 121.732 237.269L121.597 237.299Z" fill="#FE5244"/>
<path d="M121.867 219.419C121.867 219.419 123.195 220.987 119.317 222.104" stroke="#FE5244" stroke-width="0.375" stroke-miterlimit="10" stroke-linecap="round"/>
<path d="M122.745 221.182C122.745 221.182 124.072 222.749 120.195 223.867" stroke="#FE5244" stroke-width="0.375" stroke-miterlimit="10" stroke-linecap="round"/>
<path d="M123.465 222.945C123.465 222.945 124.792 224.512 120.915 225.63" stroke="#FE5244" stroke-width="0.375" stroke-miterlimit="10" stroke-linecap="round"/>
<path d="M158.355 168.352C155.22 169.222 152.16 170.295 149.257 171.457C136.725 176.505 127.117 183.36 126.997 183.442L133.02 174.885C137.175 172.672 142.455 170.325 148.29 168.195C149.31 167.827 150.315 167.467 151.312 167.115C151.56 167.025 151.807 166.942 152.047 166.86C152.167 166.815 152.287 166.777 152.415 166.732C152.782 166.605 153.142 166.485 153.502 166.365C153.802 166.267 154.095 166.17 154.387 166.065C155.28 165.765 156.157 165.487 157.012 165.217C157.425 165.937 157.965 167.01 158.355 168.352Z" fill="#9A3B82"/>
<path d="M112.365 174.263C112.365 175.568 109.102 176.633 105.075 176.633C101.047 176.633 97.7847 175.575 97.7847 174.263C97.7847 174.248 97.7847 174.225 97.7847 174.21C97.8747 172.928 101.107 171.9 105.075 171.9C109.042 171.9 112.275 172.928 112.365 174.21C112.365 174.225 112.365 174.248 112.365 174.263Z" fill="white" stroke="#3FB1B5" stroke-width="0.375" stroke-miterlimit="10" stroke-linecap="round"/>
<path d="M109.425 172.5V178.658C109.425 180.653 108.322 182.475 106.567 183.413L103.575 185.003C102.847 185.393 102.03 185.595 101.205 185.595C100.852 185.595 100.612 185.303 100.612 184.995C100.612 184.868 100.657 184.733 100.747 184.62L101.865 183.27C102.022 183.083 101.887 182.805 101.647 182.805H95.0699L93.8699 184.32C93.2324 185.123 92.2574 185.595 91.2374 185.595H90.8924C90.4649 185.595 90.2024 185.138 90.4124 184.77L90.5474 184.523C90.1349 184.695 89.6849 184.793 89.2274 184.793H88.8824C88.4549 184.793 88.1924 184.335 88.4024 183.968L91.0949 180.998L92.9624 180.263V180.27L102.24 176.625V172.245C103.117 172.133 104.07 172.065 105.075 172.065C106.702 172.058 108.202 172.223 109.425 172.5Z" fill="#E57281"/>
<path d="M92.7222 180.578L90.4722 184.441" stroke="#9A3B82" stroke-width="0.3" stroke-miterlimit="10" stroke-linecap="round"/>
<path d="M101.295 183.945L102.675 182.258C102.945 181.928 102.712 181.44 102.285 181.44" stroke="#9A3B82" stroke-width="0.3" stroke-miterlimit="10" stroke-linecap="round"/>
<path d="M109.425 172.5V176.348C108.202 176.625 106.702 176.79 105.075 176.79C104.07 176.79 103.117 176.73 102.24 176.61V172.23C103.117 172.118 104.07 172.05 105.075 172.05C106.695 172.058 108.202 172.223 109.425 172.5Z" fill="#9A3B82"/>
<path d="M162.802 62.6627C162.802 63.5102 159.487 64.1777 155.4 64.1777C151.312 64.1777 147.997 63.5102 147.997 62.6627C147.997 61.8152 151.312 61.1177 155.4 61.1177C159.487 61.1177 162.802 61.8227 162.802 62.6627Z" stroke="#3FB1B5" stroke-width="0.375" stroke-miterlimit="10" stroke-linecap="round"/>
<path d="M153.142 63.9C152.227 63.84 151.395 63.75 150.675 63.6225V56.34C150.675 56.1 150.727 55.86 150.832 55.6425L153.187 50.7825C153.622 49.8825 154.537 49.3125 155.535 49.3125H158.422L152.107 60.93C152.077 60.9825 152.055 61.035 152.032 61.0875C151.665 61.995 152.122 63.1575 153.142 63.9Z" fill="#E57281"/>
<path d="M158.572 60.953L159.502 59.333V63.728C158.737 63.8255 157.875 63.908 156.952 63.9455L158.572 60.953Z" fill="#9A3B82"/>
<path d="M172.177 35.5198L156.802 63.8098C156.232 64.8598 154.672 65.1073 153.307 64.3648C151.942 63.6223 151.305 62.1748 151.875 61.1323L167.25 32.8423L172.177 35.5198Z" fill="white" stroke="#FE5244" stroke-width="0.375" stroke-miterlimit="10"/>
<path d="M172.172 35.5305C172.741 34.4824 172.1 33.0331 170.739 32.2933C169.378 31.5536 167.812 31.8036 167.243 32.8517C166.673 33.8998 167.315 35.3492 168.676 36.0889C170.037 36.8286 171.602 36.5786 172.172 35.5305Z" fill="white" stroke="#FE5244" stroke-width="0.375" stroke-miterlimit="10"/>
<path d="M162.757 45.9003L170.025 39.8853L169.912 42.0753L172.237 42.6528L166.687 46.0803C170.947 45.1653 178.597 43.8753 179.76 46.1253C180.217 47.0103 179.355 48.8178 178.777 50.1153C178.417 52.8528 192.772 49.4628 192.937 49.4253L190.725 51.4728L192.937 52.7328C192.937 52.7328 180.892 55.0278 177.787 54.3978C176.032 54.0378 177.427 51.6828 178.65 49.9578C179.025 48.6303 176.04 48.1953 163.627 49.5453L162.757 45.9003Z" fill="#FE5244"/>
<path d="M162.862 49.5151C164.047 49.5151 165.007 48.5547 165.007 47.3701C165.007 46.1854 164.047 45.2251 162.862 45.2251C161.678 45.2251 160.717 46.1854 160.717 47.3701C160.717 48.5547 161.678 49.5151 162.862 49.5151Z" fill="white" stroke="#FE5244" stroke-width="0.375" stroke-miterlimit="10"/>
<path d="M164.542 54.5551L163.852 56.1751L163.042 58.0651L162.607 59.0926L161.94 60.6601C161.925 60.7051 161.902 60.7426 161.88 60.7876C161.88 60.7876 161.88 60.7951 161.872 60.7951C161.655 61.1626 161.242 61.3951 160.792 61.3951H155.497C154.86 61.3951 154.417 60.7876 154.657 60.2251L155.04 59.3251L155.887 57.3376L156.615 55.6276L157.252 54.1201C157.44 53.6776 157.897 53.3926 158.4 53.3926H163.695C164.347 53.3851 164.782 53.9926 164.542 54.5551Z" fill="#E57281"/>
<path d="M156.802 55.62C157.02 55.3725 157.342 55.23 157.687 55.23H162.742C163.275 55.23 163.657 55.6875 163.605 56.175" stroke="#9A3B82" stroke-width="0.3" stroke-miterlimit="10" stroke-linecap="round"/>
<path d="M156.113 57.3377C156.33 57.1202 156.63 56.9927 156.953 56.9927H162.008C162.585 56.9927 162.99 57.5327 162.84 58.0652" stroke="#9A3B82" stroke-width="0.3" stroke-miterlimit="10" stroke-linecap="round"/>
<path d="M155.317 59.3176C155.535 59.1151 155.827 58.9951 156.135 58.9951H161.19C161.79 58.9951 162.202 59.5726 162.007 60.1201" stroke="#9A3B82" stroke-width="0.3" stroke-miterlimit="10" stroke-linecap="round"/>
<path d="M161.325 49.3052V49.4402C161.325 50.8127 160.215 51.9302 158.835 51.9302H156.225V49.3052H161.325Z" fill="#E57281"/>
<path d="M97.9424 107.979C97.7024 108.339 97.4549 108.676 97.2074 108.984C96.9374 108.916 96.6749 108.804 96.4349 108.639C96.1949 108.474 95.9924 108.279 95.8274 108.046C96.0224 107.709 96.2399 107.349 96.4874 106.989C97.7024 105.189 99.0074 103.951 99.4124 104.221C99.8174 104.491 99.1574 106.179 97.9424 107.979Z" fill="#FFCF2D"/>
<path d="M108.997 80.9561L99.6298 94.7861C99.5173 94.9511 99.6748 95.1536 99.8623 95.1011L104.34 93.6611C103.792 94.3136 103.455 95.1611 103.455 96.0761V100.434C103.455 102.136 102.097 103.524 100.402 103.569C100.297 103.374 100.087 103.239 99.8398 103.239C99.6673 103.239 99.5098 103.306 99.3898 103.426C99.2698 103.546 99.2023 103.704 99.2098 103.876C99.2098 104.221 99.4948 104.506 99.8473 104.506C100.162 104.506 100.425 104.266 100.47 103.966C102.345 103.884 103.852 102.331 103.852 100.434V96.0761C103.852 94.9811 104.392 93.9836 105.202 93.3836L114.21 90.4886L125.775 80.9561H108.997ZM100.012 104.026C99.9673 104.071 99.9073 104.094 99.8473 104.094C99.7873 104.094 99.7273 104.071 99.6823 104.026C99.6373 103.981 99.6148 103.921 99.6148 103.861C99.6148 103.801 99.6373 103.741 99.6823 103.696C99.7273 103.651 99.7873 103.629 99.8473 103.629C99.9148 103.629 99.9673 103.651 100.012 103.696C100.057 103.741 100.08 103.794 100.08 103.861C100.087 103.929 100.057 103.981 100.012 104.026Z" fill="#3FB1B5"/>
<path d="M98.8125 94.7564C98.775 94.7564 98.7375 94.7489 98.7 94.7189C98.61 94.6589 98.5875 94.5314 98.6475 94.4414L108.412 80.0264H126.098C126.21 80.0264 126.3 80.1164 126.3 80.2289C126.3 80.3414 126.21 80.4314 126.098 80.4314H108.623L98.9775 94.6664C98.94 94.7264 98.88 94.7564 98.8125 94.7564Z" fill="#3FB1B5"/>
<path d="M108.682 92.4315L107.557 91.9215L107.617 91.749C107.64 91.6815 108.187 90.0915 109.537 88.404C110.79 86.8365 112.987 84.909 116.37 84.579L116.565 84.564L116.76 85.9815L116.362 86.034L116.22 84.999C113.085 85.359 111.03 87.174 109.852 88.6515C108.795 89.9715 108.24 91.2615 108.067 91.7115L108.855 92.0715L108.682 92.4315Z" fill="white"/>
<path d="M114.383 103.365L112.11 95.9404L117.428 93.3379L119.618 95.0029L123.383 97.8604L124.523 109.215L114.383 103.365Z" fill="#E57281"/>
<path d="M119.618 95.0029L115.56 104.048L114.383 103.365L112.11 95.9404L117.428 93.3379L119.618 95.0029Z" fill="#9A3B82"/>
<path d="M115.11 96.4281C114.728 96.4656 113.955 96.0756 113.078 95.5206L112.05 96.3531C111.458 96.8331 110.588 96.7506 110.108 96.1581C109.898 95.9031 109.793 95.5881 109.793 95.2806C109.793 94.8831 109.965 94.4856 110.303 94.2081L110.723 93.8631C109.62 93.0381 108.758 92.3256 108.758 92.3256C108.758 92.3256 110.67 86.5806 116.783 85.9956C116.783 85.9956 120.023 92.6931 120.24 93.3306C120.458 93.9756 117.27 96.2106 115.11 96.4281Z" fill="#E57281"/>
<path d="M110.723 93.8628C109.62 93.0378 108.758 92.3253 108.758 92.3253C108.758 92.3253 109.463 90.2028 111.398 88.4028C109.373 90.4203 112.395 92.6703 110.723 93.8628Z" fill="#FFCF2D"/>
<path d="M111.787 89.9933C111.787 89.9933 112.11 89.1233 112.927 88.6733" stroke="#9A3B82" stroke-width="0.3" stroke-miterlimit="10" stroke-linecap="round"/>
<path d="M117.637 87.7883C117.637 87.7883 116.505 87.6308 115.942 87.9758C115.38 88.3208 115.38 90.1058 116.28 91.2233" stroke="#9A3B82" stroke-width="0.3" stroke-miterlimit="10" stroke-linecap="round"/>
<path d="M116.82 92.3408C116.82 92.3408 116.122 92.9633 114.938 92.5058" stroke="#9A3B82" stroke-width="0.3" stroke-miterlimit="10" stroke-linecap="round"/>
<path d="M115.05 92.1758C115.05 92.1758 114.803 92.5283 114.818 92.9258" stroke="#9A3B82" stroke-width="0.3" stroke-miterlimit="10" stroke-linecap="round"/>
<path d="M113.583 91.1157C113.703 91.0835 113.749 90.866 113.686 90.63C113.622 90.394 113.474 90.2288 113.354 90.261C113.234 90.2932 113.188 90.5107 113.251 90.7467C113.315 90.9827 113.463 91.1479 113.583 91.1157Z" fill="#9A3B82"/>
<path d="M116.936 89.6481C117.044 89.6191 117.084 89.4172 117.024 89.1972C116.965 88.9772 116.83 88.8223 116.722 88.8513C116.614 88.8803 116.574 89.0822 116.633 89.3022C116.692 89.5222 116.828 89.6771 116.936 89.6481Z" fill="#9A3B82"/>
<path d="M113.467 95.9708L111.735 94.6208C111.54 94.4708 111.27 94.4858 111.09 94.6508L110.985 94.7483C110.782 94.9433 110.782 95.2583 110.985 95.4533" stroke="#9A3B82" stroke-width="0.3" stroke-miterlimit="10" stroke-linecap="round"/>
</svg>
