<svg width="8" height="14" viewBox="0 0 8 14" fill="none" xmlns="http://www.w3.org/2000/svg">
<path d="M7.69471 7.69471C7.88218 7.50718 7.9875 7.25288 7.9875 6.98771C7.9875 6.72255 7.88218 6.46824 7.69471 6.28071L1.69471 0.280712C1.50611 0.0985538 1.25351 -0.00224062 0.991311 3.78026e-05C0.729114 0.00231622 0.478301 0.107485 0.292893 0.292893C0.107485 0.478301 0.00231622 0.729114 3.78026e-05 0.991311C-0.00224062 1.25351 0.0985538 1.50611 0.280712 1.69471L5.57371 6.98771L0.280712 12.2807C0.0985538 12.4693 -0.00224062 12.7219 3.78026e-05 12.9841C0.00231622 13.2463 0.107485 13.4971 0.292893 13.6825C0.478301 13.8679 0.729114 13.9731 0.991311 13.9754C1.25351 13.9777 1.50611 13.8769 1.69471 13.6947L7.69471 7.69471Z" fill="#8670E1"/>
</svg>
