<svg width="22" height="21" viewBox="0 0 22 21" fill="none" xmlns="http://www.w3.org/2000/svg">
<path d="M20.9842 9.72294L16.7561 13.4129L18.0226 18.9067C18.0897 19.1939 18.0705 19.4945 17.9677 19.7709C17.8648 20.0472 17.6827 20.2872 17.4442 20.4606C17.2057 20.6341 16.9214 20.7334 16.6267 20.7462C16.3321 20.7589 16.0402 20.6845 15.7876 20.5323L10.9961 17.6261L6.21483 20.5323C5.96223 20.6845 5.67038 20.7589 5.37574 20.7462C5.0811 20.7334 4.79676 20.6341 4.55826 20.4606C4.31976 20.2872 4.13769 20.0472 4.03481 19.7709C3.93193 19.4945 3.9128 19.1939 3.97983 18.9067L5.24451 13.4186L1.01545 9.72294C0.791771 9.53002 0.630028 9.27536 0.550503 8.99089C0.470978 8.70642 0.477213 8.4048 0.568424 8.12385C0.659636 7.84291 0.831764 7.59515 1.06322 7.41164C1.29468 7.22813 1.57517 7.11705 1.86951 7.09231L7.44389 6.6095L9.61983 1.4195C9.73346 1.14717 9.92512 0.914551 10.1707 0.750929C10.4163 0.587308 10.7047 0.5 10.9998 0.5C11.2949 0.5 11.5834 0.587308 11.829 0.750929C12.0745 0.914551 12.2662 1.14717 12.3798 1.4195L14.5623 6.6095L20.1348 7.09231C20.4292 7.11705 20.7097 7.22813 20.9411 7.41164C21.1726 7.59515 21.3447 7.84291 21.4359 8.12385C21.5271 8.4048 21.5334 8.70642 21.4538 8.99089C21.3743 9.27536 21.2126 9.53002 20.9889 9.72294H20.9842Z" fill="#8670E1"/>
</svg>
