<svg width="24" height="22" viewBox="0 0 24 22" fill="none" xmlns="http://www.w3.org/2000/svg">
<path d="M24 8.42024C24.0005 8.09442 23.9147 7.77428 23.7514 7.49236C23.588 7.21045 23.353 6.97682 23.07 6.81524L12.96 0.815239C12.6687 0.645241 12.3374 0.555664 12 0.555664C11.6627 0.555664 11.3314 0.645241 11.04 0.815239L0.915025 6.81524C0.635233 6.98126 0.403453 7.21722 0.242466 7.49994C0.0814795 7.78266 -0.00317383 8.1024 -0.00317383 8.42774C-0.00317383 8.75308 0.0814795 9.07282 0.242466 9.35554C0.403453 9.63826 0.635233 9.87422 0.915025 10.0402L3.79502 11.7202V15.9352C3.79676 16.2647 3.88322 16.5881 4.04609 16.8744C4.20896 17.1608 4.44277 17.4004 4.72503 17.5702L11.1 21.2452C11.3847 21.4028 11.7047 21.4855 12.03 21.4855C12.3554 21.4855 12.6754 21.4028 12.96 21.2452L19.335 17.5702C19.6173 17.4004 19.8511 17.1608 20.014 16.8744C20.1768 16.5881 20.2633 16.2647 20.265 15.9352V11.6752L22.125 10.5802V14.6602H24V8.42024ZM18.405 15.9202L12 19.6102L5.67002 15.9352V12.8302L11.04 16.0252C11.3324 16.1923 11.6633 16.2802 12 16.2802C12.3368 16.2802 12.6677 16.1923 12.96 16.0252L18.39 12.7852L18.405 15.9202ZM12 14.4052L1.87502 8.40524L12 2.39024L22.125 8.39024L12 14.4052Z" fill="#8670E1"/>
</svg>
